<svg width="157" height="53" viewBox="0 0 157 53" fill="none" xmlns="http://www.w3.org/2000/svg">
<path d="M0.6513 29V27.396L3.92908 26.6288L12.4025 4.41668H14.9131L22.8635 26.6637L26.0715 27.396V29H15.8197V27.396L18.4001 26.8032L16.7264 22.0957H8.18321L6.36997 26.6986L9.43853 27.396V29H0.6513ZM8.95035 20.0384H15.9592L12.542 10.5189L8.95035 20.0384ZM28.1217 10.1702C28.1217 8.24075 28.8889 6.74134 30.4232 5.672C31.9574 4.60265 33.945 4.06798 36.3859 4.06798C38.9895 4.06798 41.3723 4.33532 43.5343 4.86999L43.3599 11.565H41.7908L40.0473 6.54375C39.0709 6.35777 38.0829 6.26479 37.0833 6.26479C35.4793 6.26479 34.2124 6.57862 33.2825 7.20628C32.3759 7.83393 31.9226 8.70568 31.9226 9.82152C31.9226 10.7746 32.3294 11.5766 33.143 12.2275C33.9799 12.8552 35.4212 13.5991 37.4669 14.4592C38.5595 14.9009 39.4545 15.3194 40.1519 15.7145C40.8725 16.0865 41.6397 16.5863 42.4533 17.214C43.2669 17.8416 43.8713 18.5971 44.2665 19.4805C44.685 20.3639 44.8942 21.3519 44.8942 22.4444C44.8942 24.7691 44.0341 26.5591 42.3138 27.8144C40.7098 28.9768 38.699 29.5463 36.2813 29.523C35.6304 29.523 34.5494 29.4649 33.0384 29.3487C31.5506 29.2325 29.935 28.9186 28.1915 28.4072V21.5378H29.7955L31.5739 26.7683C32.5502 27.0705 33.6893 27.2216 34.9911 27.2216C36.8044 27.2216 38.2689 26.9078 39.3847 26.2801C40.5006 25.6292 41.0585 24.618 41.0585 23.2465C41.0585 22.2004 40.5587 21.2937 39.5591 20.5266C38.5595 19.7595 37.0949 18.9575 35.1655 18.1206C32.5154 16.9815 30.6789 15.8773 29.656 14.8079C28.6332 13.7386 28.1217 12.1927 28.1217 10.1702ZM46.2146 6.19505V4.59103H56.2572V6.19505L53.9906 6.64836L59.7442 15.1218L64.9049 6.89245L62.3245 6.19505V4.59103H70.8677V6.19505L67.6596 6.96219L60.8949 17.737V26.6288L64.1029 27.396V29H53.3978V27.396L56.6059 26.6288V17.8416L49.0391 6.89245L46.2146 6.19505ZM72.3082 29V27.396L75.5163 26.6288V6.96219L72.3082 6.19505V4.59103H83.0133V6.19505L79.8053 6.96219V26.6637H87.9997L89.8827 21.4681H91.4867L91.138 29H72.3082ZM91.0258 11.9835V4.59103H111.773V11.9835H110.135L108.565 6.92732L103.544 6.64836V26.6288L106.752 27.396V29H96.0471V27.396L99.2551 26.6288V6.64836L94.199 6.92732L92.6647 11.9835H91.0258ZM110.607 29V27.396L113.885 26.6288L122.359 4.41668H124.869L132.82 26.6637L136.028 27.396V29H125.776V27.396L128.356 26.8032L126.682 22.0957H118.139L116.326 26.6986L119.395 27.396V29H110.607ZM118.906 20.0384H125.915L122.498 10.5189L118.906 20.0384ZM138.078 10.1702C138.078 8.24075 138.845 6.74134 140.379 5.672C141.914 4.60265 143.901 4.06798 146.342 4.06798C148.946 4.06798 151.328 4.33532 153.49 4.86999L153.316 11.565H151.747L150.003 6.54375C149.027 6.35777 148.039 6.26479 147.039 6.26479C145.435 6.26479 144.169 6.57862 143.239 7.20628C142.332 7.83393 141.879 8.70568 141.879 9.82152C141.879 10.7746 142.286 11.5766 143.099 12.2275C143.936 12.8552 145.377 13.5991 147.423 14.4592C148.516 14.9009 149.411 15.3194 150.108 15.7145C150.829 16.0865 151.596 16.5863 152.409 17.214C153.223 17.8416 153.827 18.5971 154.223 19.4805C154.641 20.3639 154.85 21.3519 154.85 22.4444C154.85 24.7691 153.99 26.5591 152.27 27.8144C150.666 28.9768 148.655 29.5463 146.237 29.523C145.587 29.523 144.506 29.4649 142.995 29.3487C141.507 29.2325 139.891 28.9186 138.148 28.4072V21.5378H139.752L141.53 26.7683C142.506 27.0705 143.645 27.2216 144.947 27.2216C146.761 27.2216 148.225 26.9078 149.341 26.2801C150.457 25.6292 151.015 24.618 151.015 23.2465C151.015 22.2004 150.515 21.2937 149.515 20.5266C148.516 19.7595 147.051 18.9575 145.122 18.1206C142.472 16.9815 140.635 15.8773 139.612 14.8079C138.589 13.7386 138.078 12.1927 138.078 10.1702Z" fill="#5D5798"/>
<path d="M12.3228 47.5459C12.3228 47.1585 12.6295 46.7993 13.243 46.4683C13.4206 46.9607 13.5255 47.2392 13.5578 47.3037C13.582 47.3764 13.6304 47.4773 13.7031 47.6064C13.7676 47.7356 13.8282 47.8203 13.8847 47.8607C13.9412 47.9091 14.0179 47.9535 14.1147 47.9939C14.2116 48.0423 14.3206 48.0665 14.4416 48.0665C14.821 48.0665 15.1762 47.8607 15.5071 47.449C15.83 47.0374 16.0842 46.4441 16.2699 45.6692L17.7833 39.4338H16.8874L16.9842 39.0342L17.8923 38.9616L18.1466 37.9324C18.3968 36.9316 18.8246 36.2091 19.43 35.7652C20.0354 35.3212 20.7215 35.0993 21.4883 35.0993C22.7959 35.0993 23.4497 35.4342 23.4497 36.1042C23.4497 36.5078 23.1591 36.8428 22.578 37.1091L22.2026 36.3221C22.0815 36.0638 21.9403 35.8782 21.7789 35.7652C21.6981 35.7087 21.6174 35.6724 21.5367 35.6562C21.456 35.6401 21.3833 35.632 21.3188 35.632C20.3179 35.632 19.6035 36.4997 19.1757 38.2351L19.0183 38.8768L20.786 38.7316L20.6044 39.4338H18.8851L17.3596 45.6934C16.8914 47.6307 15.83 48.5993 14.1753 48.5993C13.6183 48.5993 13.1703 48.5024 12.8313 48.3087C12.4923 48.115 12.3228 47.8607 12.3228 47.5459ZM20.7819 39.6517V39.2643C21.3873 39.0786 21.8433 38.9455 22.15 38.8647C22.4568 38.7759 22.6666 38.7316 22.7796 38.7316C23.0621 38.7316 23.2034 38.8526 23.2034 39.0948C23.2034 39.1594 23.1751 39.3006 23.1186 39.5185C23.0621 39.7284 22.9935 39.9827 22.9128 40.2813C22.8321 40.5719 22.7433 40.8867 22.6464 41.2257C22.5496 41.5647 22.4608 41.8876 22.3801 42.1943C22.2994 42.493 22.2307 42.7634 22.1742 43.0055C22.1177 43.2396 22.0895 43.4011 22.0895 43.4898C22.0895 43.8692 22.2388 44.0589 22.5375 44.0589C22.6908 44.0589 22.8644 44.0105 23.0581 43.9136C23.2599 43.8087 23.4617 43.6715 23.6635 43.502C23.8734 43.3324 24.0751 43.1428 24.2689 42.9329C24.4707 42.715 24.6442 42.493 24.7895 42.267L25.6612 38.8163L26.7751 38.7316L25.4554 44.0347H26.6662V44.4221C26.0608 44.6078 25.6047 44.745 25.298 44.8338C24.9913 44.9145 24.7814 44.9549 24.6684 44.9549C24.3859 44.9549 24.2447 44.8338 24.2447 44.5916C24.2366 44.4867 24.2648 44.3212 24.3294 44.0952L24.5231 43.3446C23.716 44.4181 22.9047 44.9549 22.0895 44.9549C21.3388 44.9549 20.9635 44.5594 20.9635 43.7683C20.9635 43.3728 21.0644 42.836 21.2662 42.158L21.9926 39.6517H20.7819ZM27.9094 44.9549L29.2412 39.6396H28.0305V39.2643C29.1121 38.9091 29.778 38.7316 30.0282 38.7316C30.3107 38.7316 30.452 38.8486 30.452 39.0827C30.452 39.2118 30.4237 39.3773 30.3672 39.5791L30.1735 40.3177C30.9645 39.2603 31.687 38.7316 32.3408 38.7316C32.5829 38.7316 32.7726 38.8042 32.9098 38.9495C33.0551 39.0948 33.1278 39.2764 33.1278 39.4943C33.1278 39.7284 33.0471 39.9706 32.8856 40.2208C32.3367 39.9706 31.9614 39.8455 31.7596 39.8455C31.5901 39.8455 31.4206 39.8898 31.2511 39.9786C31.0897 40.0594 30.9201 40.1966 30.7426 40.3903C30.565 40.584 30.4237 40.7455 30.3188 40.8746C30.2219 41.0037 30.0766 41.2055 29.8829 41.48L29.0354 44.8701L27.9094 44.9549ZM33.3132 44.9549L34.6329 39.6517H33.4221V39.2643C34.0275 39.0786 34.4836 38.9455 34.7903 38.8647C35.097 38.7759 35.3069 38.7316 35.4199 38.7316C35.7024 38.7316 35.8437 38.8526 35.8437 39.0948C35.8437 39.1594 35.8356 39.232 35.8194 39.3127C35.8033 39.3934 35.7831 39.4863 35.7589 39.5912L35.5652 40.3419C36.3724 39.2683 37.1836 38.7316 37.9988 38.7316C38.7495 38.7316 39.1248 39.1271 39.1248 39.9181C39.1248 40.3217 39.0239 40.8585 38.8221 41.5284L38.0957 44.0347H39.3064V44.4221C38.7011 44.6078 38.245 44.745 37.9383 44.8338C37.6316 44.9145 37.4217 44.9549 37.3087 44.9549C37.0262 44.9549 36.8849 44.8338 36.8849 44.5916C36.8849 44.4544 36.9132 44.289 36.9697 44.0952C37.5831 41.9724 37.906 40.8262 37.9383 40.6567C37.9786 40.4791 37.9988 40.3257 37.9988 40.1966C37.9988 39.8172 37.8495 39.6275 37.5508 39.6275C37.4055 39.6275 37.232 39.68 37.0302 39.7849C36.8365 39.8818 36.6347 40.015 36.4248 40.1845C36.215 40.3459 36.0091 40.5356 35.8073 40.7535C35.6136 40.9715 35.4441 41.1934 35.2988 41.4194L34.4271 44.8701L33.3132 44.9549ZM40.6462 44.6037C40.6382 44.5392 40.6422 44.4665 40.6583 44.3858C40.6825 44.3051 40.7068 44.2123 40.731 44.1073L41.8691 39.6396H40.6462V39.2643C41.7601 38.9091 42.426 38.7316 42.644 38.7316C42.9346 38.7316 43.0799 38.8486 43.0799 39.0827C43.0799 39.1715 43.0476 39.3369 42.983 39.5791L41.8691 44.0468H43.0799V44.4221C42.0144 44.7773 41.3485 44.9549 41.0821 44.9549C40.7915 44.9549 40.6462 44.8378 40.6462 44.6037ZM42.1112 37.0728C42.1112 36.8549 42.1879 36.6733 42.3413 36.528C42.4947 36.3746 42.6803 36.2979 42.8982 36.2979C43.1162 36.2979 43.2978 36.3746 43.4431 36.528C43.5964 36.6733 43.6731 36.8549 43.6731 37.0728C43.6731 37.2988 43.5964 37.4885 43.4431 37.6419C43.2978 37.7872 43.1162 37.8598 42.8982 37.8598C42.6803 37.8598 42.4947 37.7872 42.3413 37.6419C42.1879 37.4885 42.1112 37.2988 42.1112 37.0728ZM44.5506 44.2284C44.5506 44.1073 44.5708 43.958 44.6112 43.7804L45.713 39.3975H44.708L44.8049 39.0342L45.8341 38.9495L46.1004 37.8961L47.2264 37.7145L46.9359 38.8647L48.5219 38.7316L48.3524 39.3975H46.8027L45.7856 43.5504C45.7695 43.6311 45.7614 43.6795 45.7614 43.6957C45.7614 43.8733 45.8542 43.962 46.0399 43.962C46.2498 43.962 46.5161 43.9096 46.839 43.8046C47.1619 43.6997 47.4363 43.6109 47.6623 43.5383L47.7834 43.9257C47.63 44.0145 47.2426 44.2082 46.6211 44.5069C45.9995 44.8055 45.5233 44.9549 45.1924 44.9549C44.7646 44.9549 44.5506 44.7127 44.5506 44.2284ZM48.9463 39.6517V39.2643C49.5517 39.0786 50.0077 38.9455 50.3144 38.8647C50.6212 38.7759 50.831 38.7316 50.944 38.7316C51.2266 38.7316 51.3678 38.8526 51.3678 39.0948C51.3678 39.1594 51.3396 39.3006 51.2831 39.5185C51.2266 39.7284 51.1579 39.9827 51.0772 40.2813C50.9965 40.5719 50.9077 40.8867 50.8109 41.2257C50.714 41.5647 50.6252 41.8876 50.5445 42.1943C50.4638 42.493 50.3952 42.7634 50.3387 43.0055C50.2822 43.2396 50.2539 43.4011 50.2539 43.4898C50.2539 43.8692 50.4032 44.0589 50.7019 44.0589C50.8553 44.0589 51.0288 44.0105 51.2225 43.9136C51.4243 43.8087 51.6261 43.6715 51.8279 43.502C52.0378 43.3324 52.2396 43.1428 52.4333 42.9329C52.6351 42.715 52.8086 42.493 52.9539 42.267L53.8257 38.8163L54.9396 38.7316L53.6198 44.0347H54.8306V44.4221C54.2252 44.6078 53.7692 44.745 53.4624 44.8338C53.1557 44.9145 52.9458 44.9549 52.8328 44.9549C52.5503 44.9549 52.4091 44.8338 52.4091 44.5916C52.401 44.4867 52.4292 44.3212 52.4938 44.0952L52.6875 43.3446C51.8804 44.4181 51.0692 44.9549 50.2539 44.9549C49.5032 44.9549 49.1279 44.5594 49.1279 43.7683C49.1279 43.3728 49.2288 42.836 49.4306 42.158L50.157 39.6517H48.9463ZM56.0738 44.9549L57.4056 39.6396H56.1949V39.2643C57.2765 38.9091 57.9424 38.7316 58.1926 38.7316C58.4751 38.7316 58.6164 38.8486 58.6164 39.0827C58.6164 39.2118 58.5881 39.3773 58.5316 39.5791L58.3379 40.3177C59.129 39.2603 59.8514 38.7316 60.5052 38.7316C60.7473 38.7316 60.937 38.8042 61.0742 38.9495C61.2195 39.0948 61.2922 39.2764 61.2922 39.4943C61.2922 39.7284 61.2115 39.9706 61.05 40.2208C60.5011 39.9706 60.1258 39.8455 59.924 39.8455C59.7545 39.8455 59.585 39.8898 59.4155 39.9786C59.2541 40.0594 59.0846 40.1966 58.907 40.3903C58.7294 40.584 58.5881 40.7455 58.4832 40.8746C58.3864 41.0037 58.2411 41.2055 58.0473 41.48L57.1998 44.8701L56.0738 44.9549ZM61.3202 42.9087C61.3202 42.5212 61.3726 42.1338 61.4776 41.7464C61.5825 41.3508 61.7399 40.9755 61.9498 40.6203C62.1677 40.2571 62.422 39.9383 62.7126 39.6638C63.0031 39.3813 63.3502 39.1553 63.7538 38.9858C64.1574 38.8163 64.5892 38.7316 65.0493 38.7316C65.5013 38.7316 65.8646 38.8365 66.139 39.0464C66.4215 39.2481 66.5628 39.5468 66.5628 39.9423C66.5628 40.241 66.474 40.5154 66.2964 40.7656C66.1269 41.0078 65.917 41.2136 65.6668 41.3831C65.4166 41.5526 65.0978 41.71 64.7103 41.8553C64.3229 42.0006 63.9677 42.1177 63.6448 42.2064C63.33 42.2872 62.9628 42.3719 62.5431 42.4607C62.535 42.5333 62.5309 42.6423 62.5309 42.7876C62.5309 43.8369 62.987 44.3616 63.8991 44.3616C64.3188 44.3616 64.8152 44.2526 65.3883 44.0347L65.5094 44.41C64.783 44.7733 64.0404 44.9549 63.2816 44.9549C61.974 44.9549 61.3202 44.2728 61.3202 42.9087ZM62.6036 41.9885C64.452 41.3185 65.3762 40.5961 65.3762 39.8212C65.3762 39.3934 65.1865 39.1795 64.8072 39.1795C64.3229 39.1795 63.8668 39.462 63.439 40.0271C63.0193 40.584 62.7408 41.2378 62.6036 41.9885ZM70.2903 42.8603C70.2903 41.8836 70.924 41.0603 72.1912 40.3903C71.4244 39.5589 71.041 38.7921 71.041 38.0898C71.041 37.4683 71.267 37.0002 71.719 36.6854C72.1791 36.3706 72.7441 36.2132 73.4141 36.2132C74.0679 36.2132 74.6249 36.3746 75.0849 36.6975C75.545 37.0203 75.7751 37.4724 75.7751 38.0535C75.7751 38.9656 75.1536 39.7405 73.9105 40.3782L75.884 42.3396C76.0778 41.9118 76.215 41.4517 76.2957 40.9594L75.5692 40.693V40.1481H78.0513V40.693L77.0101 40.9594C76.9213 41.6455 76.7316 42.2791 76.441 42.8603L77.6639 44.0347L78.8746 44.3253V44.8701H76.8163L75.7751 43.8773C75.0728 44.6603 74.1849 45.0517 73.1114 45.0517C72.3123 45.0517 71.6423 44.8661 71.1015 44.4948C70.5607 44.1154 70.2903 43.5706 70.2903 42.8603ZM71.6585 42.8603C71.6585 43.2558 71.7876 43.5988 72.0459 43.8894C72.3042 44.18 72.6796 44.3253 73.1719 44.3253C74.0033 44.3253 74.6935 44.0024 75.2423 43.3567L72.7361 40.9594C72.0177 41.5324 71.6585 42.1661 71.6585 42.8603ZM72.3486 38.0777C72.3486 38.2715 72.397 38.4773 72.4939 38.6952C72.5988 38.9132 72.7724 39.1513 73.0145 39.4096C73.2567 39.6679 73.3858 39.8051 73.402 39.8212C73.7087 39.6356 73.9589 39.3854 74.1527 39.0706C74.3544 38.7558 74.4553 38.4208 74.4553 38.0656C74.4553 37.7024 74.3544 37.4199 74.1527 37.2181C73.9509 37.0082 73.6966 36.9033 73.3899 36.9033C73.1074 36.9033 72.8612 37.0082 72.6513 37.2181C72.4495 37.4199 72.3486 37.7064 72.3486 38.0777ZM82.0688 44.3979L84.2845 36.0194H83.0737V35.632C83.671 35.4464 84.123 35.3132 84.4298 35.2324C84.7446 35.1437 84.9544 35.0993 85.0594 35.0993C85.3419 35.0993 85.4831 35.2203 85.4831 35.4625C85.4831 35.5836 85.4549 35.749 85.3984 35.9589L84.3329 39.9907C85.0028 39.1513 85.7333 38.7316 86.5244 38.7316C86.9118 38.7316 87.2307 38.8728 87.4809 39.1553C87.7392 39.4378 87.8683 39.8777 87.8683 40.475C87.8683 41.7181 87.493 42.7755 86.7423 43.6472C85.9997 44.519 85.0997 44.9549 84.0423 44.9549C83.2916 44.9549 82.6338 44.7692 82.0688 44.3979ZM83.1706 44.3374C83.3401 44.3939 83.5419 44.4221 83.7759 44.4221C84.341 44.4221 84.8495 44.2324 85.3015 43.8531C85.7616 43.4656 86.1046 42.9975 86.3307 42.4486C86.5647 41.8916 86.6818 41.3226 86.6818 40.7414C86.6818 39.9585 86.4315 39.567 85.9311 39.567C85.6567 39.567 85.3419 39.7163 84.9867 40.015C84.6315 40.3136 84.3127 40.6728 84.0302 41.0925L83.1706 44.3374ZM88.7042 42.9087C88.7042 42.5212 88.7567 42.1338 88.8616 41.7464C88.9666 41.3508 89.1239 40.9755 89.3338 40.6203C89.5518 40.2571 89.806 39.9383 90.0966 39.6638C90.3872 39.3813 90.7343 39.1553 91.1379 38.9858C91.5414 38.8163 91.9733 38.7316 92.4334 38.7316C92.8854 38.7316 93.2486 38.8365 93.5231 39.0464C93.8056 39.2481 93.9468 39.5468 93.9468 39.9423C93.9468 40.241 93.858 40.5154 93.6805 40.7656C93.5109 41.0078 93.3011 41.2136 93.0509 41.3831C92.8006 41.5526 92.4818 41.71 92.0944 41.8553C91.7069 42.0006 91.3518 42.1177 91.0289 42.2064C90.7141 42.2872 90.3468 42.3719 89.9271 42.4607C89.919 42.5333 89.915 42.6423 89.915 42.7876C89.915 43.8369 90.371 44.3616 91.2831 44.3616C91.7029 44.3616 92.1993 44.2526 92.7724 44.0347L92.8935 44.41C92.167 44.7733 91.4244 44.9549 90.6657 44.9549C89.358 44.9549 88.7042 44.2728 88.7042 42.9087ZM89.9876 41.9885C91.8361 41.3185 92.7603 40.5961 92.7603 39.8212C92.7603 39.3934 92.5706 39.1795 92.1912 39.1795C91.7069 39.1795 91.2509 39.462 90.8231 40.0271C90.4033 40.584 90.1248 41.2378 89.9876 41.9885ZM94.427 43.2114C94.427 41.9683 94.7983 40.9109 95.5409 40.0392C96.2915 39.1674 97.1956 38.7316 98.253 38.7316C99.0036 38.7316 99.6615 38.9172 100.227 39.2885L99.0036 44.0347H100.214V44.4221C99.6171 44.6078 99.161 44.745 98.8462 44.8338C98.5395 44.9145 98.3337 44.9549 98.2288 44.9549C97.9462 44.9549 97.805 44.8338 97.805 44.5916C97.805 44.4706 97.8332 44.3051 97.8897 44.0952L97.9987 43.6594C97.3207 44.523 96.5781 44.9549 95.7709 44.9549C95.3835 44.9549 95.0606 44.8136 94.8023 44.5311C94.5521 44.2486 94.427 43.8087 94.427 43.2114ZM95.6135 42.945C95.6135 43.728 95.8637 44.1194 96.3642 44.1194C96.6386 44.1194 96.9575 43.9661 97.3207 43.6594C97.692 43.3526 98.0149 42.9854 98.2893 42.5576L99.1247 39.349C98.9552 39.2925 98.7534 39.2643 98.5193 39.2643C97.9543 39.2643 97.4418 39.458 96.9817 39.8455C96.5297 40.2248 96.1866 40.693 95.9525 41.2499C95.7265 41.7988 95.6135 42.3638 95.6135 42.945ZM101.297 43.2114C101.297 41.9683 101.668 40.9109 102.411 40.0392C103.161 39.1674 104.065 38.7316 105.123 38.7316C105.462 38.7316 105.78 38.7719 106.079 38.8526L106.769 36.0316H105.559V35.6441C106.156 35.4504 106.616 35.3132 106.939 35.2324C107.262 35.1437 107.467 35.0993 107.556 35.0993C107.839 35.0993 107.98 35.2244 107.98 35.4746C107.98 35.5553 107.952 35.7208 107.895 35.971L105.922 44.0347H107.133V44.4221C106.535 44.6078 106.079 44.745 105.764 44.8338C105.458 44.9145 105.248 44.9549 105.135 44.9549C104.852 44.9549 104.711 44.8338 104.711 44.5916C104.711 44.4706 104.739 44.3051 104.796 44.0952L104.917 43.5988C104.215 44.5029 103.456 44.9549 102.641 44.9549C102.253 44.9549 101.93 44.8136 101.672 44.5311C101.422 44.2486 101.297 43.8087 101.297 43.2114ZM102.483 42.945C102.483 43.728 102.733 44.1194 103.234 44.1194C103.516 44.1194 103.843 43.962 104.215 43.6472C104.586 43.3244 104.905 42.949 105.171 42.5212L105.958 39.3369C105.772 39.2885 105.583 39.2643 105.389 39.2643C104.824 39.2643 104.311 39.458 103.851 39.8455C103.399 40.2248 103.056 40.693 102.822 41.2499C102.596 41.7988 102.483 42.3638 102.483 42.945ZM107.802 43.9136C107.802 43.7925 107.826 43.6876 107.874 43.5988C107.915 43.502 107.987 43.4091 108.092 43.3203C108.205 43.2316 108.298 43.167 108.371 43.1266C108.443 43.0782 108.56 43.0096 108.722 42.9208C108.891 43.397 109.085 43.7724 109.303 44.0468C109.529 44.3132 109.848 44.4464 110.259 44.4464C110.526 44.4464 110.748 44.3697 110.925 44.2163C111.103 44.0549 111.192 43.845 111.192 43.5867C111.192 43.3446 111.115 43.1226 110.962 42.9208C110.816 42.719 110.409 42.3759 109.739 41.8916C109.521 41.7302 109.335 41.5163 109.182 41.2499C109.029 40.9836 108.952 40.6849 108.952 40.354C108.952 39.8374 109.146 39.4378 109.533 39.1553C109.929 38.8728 110.461 38.7316 111.131 38.7316C111.704 38.7316 112.164 38.8163 112.511 38.9858C112.867 39.1553 113.044 39.3854 113.044 39.6759C113.044 40.023 112.721 40.2975 112.076 40.4993C111.817 39.6759 111.402 39.2643 110.829 39.2643C110.578 39.2643 110.372 39.3329 110.211 39.4701C110.05 39.5993 109.969 39.7809 109.969 40.015C109.969 40.1925 110.025 40.3661 110.138 40.5356C110.251 40.7051 110.368 40.8423 110.49 40.9472C110.611 41.0441 110.796 41.1854 111.046 41.371C111.838 41.9441 112.233 42.5616 112.233 43.2235C112.233 43.7562 112.031 44.18 111.628 44.4948C111.224 44.8015 110.651 44.9549 109.908 44.9549C109.238 44.9549 108.718 44.858 108.346 44.6643C107.983 44.4706 107.802 44.2203 107.802 43.9136ZM116.102 43.9136C116.102 43.7925 116.126 43.6876 116.175 43.5988C116.215 43.502 116.288 43.4091 116.393 43.3203C116.506 43.2316 116.598 43.167 116.671 43.1266C116.744 43.0782 116.861 43.0096 117.022 42.9208C117.192 43.397 117.385 43.7724 117.603 44.0468C117.829 44.3132 118.148 44.4464 118.56 44.4464C118.826 44.4464 119.048 44.3697 119.226 44.2163C119.403 44.0549 119.492 43.845 119.492 43.5867C119.492 43.3446 119.415 43.1226 119.262 42.9208C119.117 42.719 118.709 42.3759 118.039 41.8916C117.821 41.7302 117.636 41.5163 117.482 41.2499C117.329 40.9836 117.252 40.6849 117.252 40.354C117.252 39.8374 117.446 39.4378 117.833 39.1553C118.229 38.8728 118.762 38.7316 119.432 38.7316C120.005 38.7316 120.465 38.8163 120.812 38.9858C121.167 39.1553 121.345 39.3854 121.345 39.6759C121.345 40.023 121.022 40.2975 120.376 40.4993C120.118 39.6759 119.702 39.2643 119.129 39.2643C118.879 39.2643 118.673 39.3329 118.511 39.4701C118.35 39.5993 118.269 39.7809 118.269 40.015C118.269 40.1925 118.326 40.3661 118.439 40.5356C118.552 40.7051 118.669 40.8423 118.79 40.9472C118.911 41.0441 119.097 41.1854 119.347 41.371C120.138 41.9441 120.533 42.5616 120.533 43.2235C120.533 43.7562 120.332 44.18 119.928 44.4948C119.524 44.8015 118.951 44.9549 118.209 44.9549C117.539 44.9549 117.018 44.858 116.647 44.6643C116.284 44.4706 116.102 44.2203 116.102 43.9136ZM121.76 44.9549L123.988 36.0194H122.777V35.632C123.375 35.4464 123.827 35.3132 124.133 35.2324C124.448 35.1437 124.662 35.0993 124.775 35.0993C125.058 35.0993 125.199 35.2203 125.199 35.4625C125.199 35.5836 125.171 35.749 125.114 35.9589L124 40.354C124.799 39.2724 125.615 38.7316 126.446 38.7316C127.197 38.7316 127.572 39.1271 127.572 39.9181C127.572 40.2975 127.471 40.8342 127.269 41.5284L126.543 44.0347H127.754V44.4221C127.156 44.6078 126.7 44.745 126.385 44.8338C126.079 44.9145 125.869 44.9549 125.756 44.9549C125.473 44.9549 125.332 44.8338 125.332 44.5916C125.332 44.4706 125.36 44.3051 125.417 44.0952L126.276 41.1168C126.381 40.7132 126.434 40.475 126.434 40.4024C126.442 40.3298 126.446 40.2611 126.446 40.1966C126.446 39.8091 126.297 39.6154 125.998 39.6154C125.691 39.6154 125.312 39.797 124.86 40.1603C124.408 40.5235 124.032 40.9472 123.734 41.4316L122.874 44.8701L121.76 44.9549ZM128.87 42.7392C128.87 42.0773 129.012 41.4477 129.294 40.8504C129.585 40.245 130.009 39.7405 130.565 39.3369C131.13 38.9333 131.768 38.7316 132.478 38.7316C133.14 38.7316 133.641 38.9293 133.98 39.3248C134.319 39.7203 134.488 40.2652 134.488 40.9594C134.488 41.6132 134.343 42.2428 134.052 42.8481C133.77 43.4535 133.346 43.958 132.781 44.3616C132.216 44.7571 131.578 44.9549 130.868 44.9549C130.206 44.9549 129.706 44.7611 129.367 44.3737C129.036 43.9782 128.87 43.4333 128.87 42.7392ZM130.093 42.9571C130.093 43.9661 130.4 44.4706 131.013 44.4706C131.385 44.4706 131.72 44.3414 132.018 44.0831C132.317 43.8168 132.551 43.4858 132.721 43.0903C132.898 42.6948 133.031 42.2952 133.12 41.8916C133.209 41.48 133.253 41.0966 133.253 40.7414C133.253 39.7244 132.947 39.2159 132.333 39.2159C131.97 39.2159 131.635 39.349 131.328 39.6154C131.03 39.8737 130.796 40.2006 130.626 40.5961C130.456 40.9916 130.323 41.3952 130.226 41.8069C130.138 42.2185 130.093 42.602 130.093 42.9571ZM134.598 48.5024L136.85 39.6517H135.64V39.2643C136.237 39.0786 136.685 38.9455 136.984 38.8647C137.282 38.7759 137.5 38.7316 137.637 38.7316C137.92 38.7316 138.061 38.8526 138.061 39.0948C138.061 39.1755 138.033 39.341 137.976 39.5912L137.867 40.0271C138.545 39.1634 139.288 38.7316 140.095 38.7316C140.483 38.7316 140.801 38.8728 141.052 39.1553C141.31 39.4378 141.439 39.8777 141.439 40.475C141.439 41.7181 141.064 42.7755 140.313 43.6472C139.571 44.519 138.671 44.9549 137.613 44.9549C137.29 44.9549 136.963 44.9185 136.632 44.8459L135.749 48.3208L134.598 48.5024ZM136.766 44.3495C136.903 44.3979 137.097 44.4221 137.347 44.4221C137.912 44.4221 138.42 44.2324 138.872 43.8531C139.332 43.4656 139.675 42.9975 139.901 42.4486C140.136 41.8916 140.253 41.3226 140.253 40.7414C140.253 39.9585 140.002 39.567 139.502 39.567C139.219 39.567 138.897 39.7203 138.533 40.0271C138.178 40.3338 137.863 40.697 137.589 41.1168L136.766 44.3495Z" fill="#5D5798"/>
</svg>
